<svg width="22" height="40" viewBox="0 0 22 40" fill="none" xmlns="http://www.w3.org/2000/svg">
<path fill-rule="evenodd" clip-rule="evenodd" d="M4.23435 1.8289C5.3804 0.657874 6.93479 0 8.55556 0C10.1763 0 11.7307 0.657874 12.8768 1.8289C14.0228 2.99992 14.6667 4.58817 14.6667 6.24425V25.14C15.7427 26.2621 16.5055 27.6627 16.8697 29.1962C17.2784 30.9167 17.1662 32.7235 16.5479 34.3774C15.9296 36.0313 14.8345 37.4544 13.4073 38.4584C11.9801 39.4624 10.2883 40 8.55556 40C6.82284 40 5.13097 39.4624 3.7038 38.4584C2.27664 37.4544 1.18146 36.0313 0.563194 34.3774C-0.0550767 32.7235 -0.167299 30.9167 0.241377 29.1962C0.60564 27.6627 1.36843 26.2621 2.44445 25.14V6.24425C2.44445 4.58817 3.08829 2.99992 4.23435 1.8289ZM13.4444 25.673H12.2222V6.24425C12.2222 5.2506 11.8359 4.29765 11.1483 3.59504C10.4606 2.89242 9.52802 2.4977 8.55556 2.4977C7.5831 2.4977 6.65047 2.89242 5.96283 3.59504C5.2752 4.29765 4.88889 5.2506 4.88889 6.24425V25.673C4.88889 26.0284 4.74072 26.3669 4.48148 26.6039C3.55899 27.4469 2.90877 28.5564 2.61686 29.7853C2.32495 31.0142 2.4051 32.3048 2.84673 33.4861C3.28835 34.6675 4.07062 35.684 5.09002 36.4012C6.10942 37.1183 7.3179 37.5023 8.55556 37.5023C9.79321 37.5023 11.0017 37.1183 12.0211 36.4012C13.0405 35.684 13.8228 34.6675 14.2644 33.4861C14.706 32.3048 14.7862 31.0142 14.4943 29.7853C14.2023 28.5564 13.5521 27.4469 12.6296 26.6039L13.4444 25.673Z" fill="#142850"/>
<path fill-rule="evenodd" clip-rule="evenodd" d="M8.55556 29.9724C7.88054 29.9724 7.33333 30.5315 7.33333 31.2212C7.33333 31.911 7.88054 32.4701 8.55556 32.4701C9.23057 32.4701 9.77778 31.911 9.77778 31.2212C9.77778 30.5315 9.23057 29.9724 8.55556 29.9724ZM4.88889 31.2212C4.88889 29.1521 6.53051 27.4747 8.55556 27.4747C10.5806 27.4747 12.2222 29.1521 12.2222 31.2212C12.2222 33.2904 10.5806 34.9678 8.55556 34.9678C6.53051 34.9678 4.88889 33.2904 4.88889 31.2212Z" fill="#142850"/>
<path fill-rule="evenodd" clip-rule="evenodd" d="M8.55556 4.9954C9.23057 4.9954 9.77778 5.55453 9.77778 6.24425V28.7235C9.77778 29.4133 9.23057 29.9724 8.55556 29.9724C7.88054 29.9724 7.33333 29.4133 7.33333 28.7235V6.24425C7.33333 5.55453 7.88054 4.9954 8.55556 4.9954Z" fill="#142850"/>
<path fill-rule="evenodd" clip-rule="evenodd" d="M17.1111 6.24425C17.1111 5.55453 17.6583 4.9954 18.3333 4.9954H20.7778C21.4528 4.9954 22 5.55453 22 6.24425C22 6.93397 21.4528 7.4931 20.7778 7.4931H18.3333C17.6583 7.4931 17.1111 6.93397 17.1111 6.24425Z" fill="#142850"/>
<path fill-rule="evenodd" clip-rule="evenodd" d="M17.1111 13.7373C17.1111 13.0476 17.6583 12.4885 18.3333 12.4885H20.7778C21.4528 12.4885 22 13.0476 22 13.7373C22 14.4271 21.4528 14.9862 20.7778 14.9862H18.3333C17.6583 14.9862 17.1111 14.4271 17.1111 13.7373Z" fill="#142850"/>
<path fill-rule="evenodd" clip-rule="evenodd" d="M17.1111 21.2304C17.1111 20.5407 17.6583 19.9816 18.3333 19.9816H20.7778C21.4528 19.9816 22 20.5407 22 21.2304C22 21.9202 21.4528 22.4793 20.7778 22.4793H18.3333C17.6583 22.4793 17.1111 21.9202 17.1111 21.2304Z" fill="#142850"/>
</svg>
